<svg xmlns='http://www.w3.org/2000/svg' style='font-size:initial;' class="pikchr" viewBox="0 0 808.508 156.528">
<path d="M9.66,121.104L126.069,121.104A7.5 7.5 0 0 0 133.569 113.604L133.569,42.924A7.5 7.5 0 0 0 126.069 35.424L9.66,35.424A7.5 7.5 0 0 0 2.16 42.924L2.16,113.604A7.5 7.5 0 0 0 9.66 121.104Z"  style="fill:none;stroke-width:2.16;stroke:rgb(255,255,255);" />
<text x="67.8643" y="68.184" text-anchor="middle" fill="rgb(255,255,255)" dominant-baseline="central">Camera</text>
<text x="67.8643" y="88.344" text-anchor="middle" fill="rgb(255,255,255)" dominant-baseline="central">60 fps</text>
<polygon points="176.769,78.264 165.249,82.584 165.249,73.944" style="fill:rgb(255,255,255)"/>
<path d="M133.569,78.264L171.009,78.264"  style="fill:none;stroke-width:2.16;stroke:rgb(255,255,255);" />
<path d="M184.269,103.968L382.343,103.968A7.5 7.5 0 0 0 389.843 96.468L389.843,60.06A7.5 7.5 0 0 0 382.343 52.56L184.269,52.56A7.5 7.5 0 0 0 176.769 60.06L176.769,96.468A7.5 7.5 0 0 0 184.269 103.968Z"  style="fill:none;stroke-width:2.16;stroke:rgb(255,255,255);" />
<text x="283.306" y="78.264" text-anchor="middle" fill="rgb(255,255,255)" dominant-baseline="central">backpressure</text>
<polygon points="476.243,27.864 464.723,32.184 464.723,23.544" style="fill:rgb(255,255,255)"/>
<path d="M389.843,78.264L433.043,78.264L433.043,27.864L470.483,27.864"  style="fill:none;stroke-width:2.16;stroke-linejoin:round;stroke:rgb(255,255,255);" />
<path d="M483.743,53.568L613.86,53.568A7.5 7.5 0 0 0 621.36 46.068L621.36,9.66A7.5 7.5 0 0 0 613.86 2.16L483.743,2.16A7.5 7.5 0 0 0 476.243 9.66L476.243,46.068A7.5 7.5 0 0 0 483.743 53.568Z"  style="fill:none;stroke-width:2.16;stroke:rgb(255,255,255);" />
<text x="548.801" y="27.864" text-anchor="middle" fill="rgb(255,255,255)" dominant-baseline="central">Fast Sub</text>
<polygon points="476.243,128.664 464.723,132.984 464.723,124.344" style="fill:rgb(255,255,255)"/>
<path d="M389.843,78.264L433.043,78.264L433.043,128.664L470.483,128.664"  style="fill:none;stroke-width:2.16;stroke-linejoin:round;stroke:rgb(255,255,255);" />
<path d="M483.743,154.368L604.068,154.368A7.5 7.5 0 0 0 611.568 146.868L611.568,110.46A7.5 7.5 0 0 0 604.068 102.96L483.743,102.96A7.5 7.5 0 0 0 476.243 110.46L476.243,146.868A7.5 7.5 0 0 0 483.743 154.368Z"  style="fill:none;stroke-width:2.16;stroke:rgb(255,255,255);" />
<text x="543.905" y="128.664" text-anchor="middle" fill="rgb(255,255,255)" dominant-baseline="central">LATEST</text>
<polygon points="654.768,128.664 643.248,132.984 643.248,124.344" style="fill:rgb(255,255,255)"/>
<path d="M611.568,128.664L649.008,128.664"  style="fill:none;stroke-width:2.16;stroke:rgb(255,255,255);" />
<path d="M662.268,154.368L798.848,154.368A7.5 7.5 0 0 0 806.348 146.868L806.348,110.46A7.5 7.5 0 0 0 798.848 102.96L662.268,102.96A7.5 7.5 0 0 0 654.768 110.46L654.768,146.868A7.5 7.5 0 0 0 662.268 154.368Z"  style="fill:none;stroke-width:2.16;stroke:rgb(255,255,255);" />
<text x="730.558" y="128.664" text-anchor="middle" fill="rgb(255,255,255)" dominant-baseline="central">Slow Sub</text>
</svg>
