<?xml version="1.0" encoding="UTF-8" standalone="no"?>
<!DOCTYPE svg PUBLIC "-//W3C//DTD SVG 1.1//EN"
 "http://www.w3.org/Graphics/SVG/1.1/DTD/svg11.dtd">
<!-- Generated by graphviz version 14.0.4 (0)
 -->
<!-- Title: modules Pages: 1 -->
<svg width="1012pt" height="448pt"
 viewBox="0.00 0.00 1012.00 448.00" xmlns="http://www.w3.org/2000/svg" xmlns:xlink="http://www.w3.org/1999/xlink">
<g id="graph0" class="graph" transform="scale(1 1) rotate(0) translate(4 443.57)">
<title>modules</title>
<g id="clust1" class="cluster">
<title>cluster_navigation</title>
<polygon fill="#aa96da" fill-opacity="0.062745" stroke="#aa96da" stroke-dasharray="5,2" points="260,-164.57 260,-431.57 996.15,-431.57 996.15,-164.57 260,-164.57"/>
<text xml:space="preserve" text-anchor="middle" x="953.65" y="-414.27" font-family="fixed" font-size="14.00" fill="#b5e4f4">navigation</text>
</g>
<g id="clust2" class="cluster">
<title>cluster_robot</title>
<polygon fill="#64b5f6" fill-opacity="0.062745" stroke="#64b5f6" stroke-dasharray="5,2" points="8,-55.57 8,-156.57 427.65,-156.57 427.65,-55.57 8,-55.57"/>
<text xml:space="preserve" text-anchor="middle" x="402.02" y="-139.27" font-family="fixed" font-size="14.00" fill="#b5e4f4">robot</text>
</g>
<!-- AstarPlanner -->
<g id="node1" class="node">
<title>AstarPlanner</title>
<polygon fill="#0b0f0f" stroke="#5c9ff0" points="697.45,-230.37 553.45,-230.37 553.45,-172.77 697.45,-172.77 697.45,-230.37"/>
<text xml:space="preserve" text-anchor="middle" x="625.45" y="-198.8" font-family="fixed" font-size="12.00" fill="#b5e4f4">AstarPlanner</text>
</g>
<!-- HolonomicLocalPlanner -->
<g id="node3" class="node">
<title>HolonomicLocalPlanner</title>
<polygon fill="#0b0f0f" stroke="#5c9ff0" points="988.15,-230.37 823.6,-230.37 823.6,-172.77 988.15,-172.77 988.15,-230.37"/>
<text xml:space="preserve" text-anchor="middle" x="905.88" y="-198.8" font-family="fixed" font-size="12.00" fill="#b5e4f4">HolonomicLocalPlanner</text>
</g>
<!-- AstarPlanner&#45;&gt;HolonomicLocalPlanner -->
<g id="edge1" class="edge">
<title>AstarPlanner&#45;&gt;HolonomicLocalPlanner</title>
<path fill="none" stroke="#f06292" d="M697.79,-201.57C732.47,-201.57 774.59,-201.57 811.76,-201.57"/>
<polygon fill="#f06292" stroke="#f06292" points="811.61,-205.07 821.61,-201.57 811.61,-198.07 811.61,-205.07"/>
<text xml:space="preserve" text-anchor="middle" x="737.75" y="-192.07" font-family="fixed" font-size="10.00" fill="#f06292">path:Path</text>
</g>
<!-- BehaviorTreeNavigator -->
<g id="node2" class="node">
<title>BehaviorTreeNavigator</title>
<polygon fill="#0b0f0f" stroke="#5c9ff0" points="427.3,-341.37 268,-341.37 268,-283.77 427.3,-283.77 427.3,-341.37"/>
<text xml:space="preserve" text-anchor="middle" x="347.65" y="-309.8" font-family="fixed" font-size="12.00" fill="#b5e4f4">BehaviorTreeNavigator</text>
</g>
<!-- BehaviorTreeNavigator&#45;&gt;AstarPlanner -->
<g id="edge2" class="edge">
<title>BehaviorTreeNavigator&#45;&gt;AstarPlanner</title>
<path fill="none" stroke="#ff6b6b" d="M421.11,-283.41C458.62,-268.32 504.53,-249.84 543.23,-234.26"/>
<polygon fill="#ff6b6b" stroke="#ff6b6b" points="544.05,-237.71 552.02,-230.72 541.44,-231.21 544.05,-237.71"/>
<text xml:space="preserve" text-anchor="middle" x="439.52" y="-247.34" font-family="fixed" font-size="10.00" fill="#ff6b6b">target:PoseStamped</text>
</g>
<!-- WavefrontFrontierExplorer -->
<g id="node4" class="node">
<title>WavefrontFrontierExplorer</title>
<polygon fill="#0b0f0f" stroke="#5c9ff0" points="715.6,-396.37 535.3,-396.37 535.3,-338.77 715.6,-338.77 715.6,-396.37"/>
<text xml:space="preserve" text-anchor="middle" x="625.45" y="-364.8" font-family="fixed" font-size="12.00" fill="#b5e4f4">WavefrontFrontierExplorer</text>
</g>
<!-- BehaviorTreeNavigator&#45;&gt;WavefrontFrontierExplorer -->
<g id="edge3" class="edge">
<title>BehaviorTreeNavigator&#45;&gt;WavefrontFrontierExplorer</title>
<path fill="none" stroke="#dce775" d="M427.68,-291.31C481.28,-295.27 549.47,-311.91 589.89,-332.76"/>
<polygon fill="#dce775" stroke="#dce775" points="588.03,-335.73 598.47,-337.56 591.45,-329.62 588.03,-335.73"/>
<text xml:space="preserve" text-anchor="middle" x="473" y="-296.72" font-family="fixed" font-size="10.00" fill="#dce775">goal_reached:Bool</text>
</g>
<!-- GO2Connection -->
<g id="node5" class="node">
<title>GO2Connection</title>
<polygon fill="#0b0f0f" stroke="#5c9ff0" points="160,-121.37 16,-121.37 16,-63.77 160,-63.77 160,-121.37"/>
<text xml:space="preserve" text-anchor="middle" x="88" y="-89.8" font-family="fixed" font-size="12.00" fill="#b5e4f4">GO2Connection</text>
</g>
<!-- HolonomicLocalPlanner&#45;&gt;GO2Connection -->
<g id="edge5" class="edge">
<title>HolonomicLocalPlanner&#45;&gt;GO2Connection</title>
<path fill="none" stroke="#4db6ac" d="M873.31,-172.53C837.7,-141.42 776.74,-92.97 715.6,-66.57 595.82,-14.87 557.49,-22.3 427.65,-9.57 353.49,-2.31 332.62,7.12 260,-9.57 219.05,-18.99 176.53,-39.57 144.14,-57.88"/>
<polygon fill="#4db6ac" stroke="#4db6ac" points="142.65,-54.7 135.73,-62.72 146.15,-60.76 142.65,-54.7"/>
<text xml:space="preserve" text-anchor="middle" x="480.36" y="-7.21" font-family="fixed" font-size="10.00" fill="#4db6ac">cmd_vel:Twist</text>
</g>
<!-- WavefrontFrontierExplorer&#45;&gt;BehaviorTreeNavigator -->
<g id="edge10" class="edge">
<title>WavefrontFrontierExplorer&#45;&gt;BehaviorTreeNavigator</title>
<path fill="none" stroke="#fff59d" d="M534.81,-387.91C483.05,-382.69 420.89,-366.86 383.11,-347.34"/>
<polygon fill="#fff59d" stroke="#fff59d" points="384.88,-344.32 374.45,-342.48 381.46,-350.42 384.88,-344.32"/>
<text xml:space="preserve" text-anchor="middle" x="388.47" y="-362.99" font-family="fixed" font-size="10.00" fill="#fff59d">goal_request:PoseStamped</text>
</g>
<!-- Map -->
<g id="node6" class="node">
<title>Map</title>
<polygon fill="#0b0f0f" stroke="#5c9ff0" points="419.65,-121.37 275.65,-121.37 275.65,-63.77 419.65,-63.77 419.65,-121.37"/>
<text xml:space="preserve" text-anchor="middle" x="347.65" y="-89.8" font-family="fixed" font-size="12.00" fill="#b5e4f4">Map</text>
</g>
<!-- GO2Connection&#45;&gt;Map -->
<g id="edge4" class="edge">
<title>GO2Connection&#45;&gt;Map</title>
<path fill="none" stroke="#7986cb" d="M160.43,-92.57C192.67,-92.57 230.95,-92.57 264.39,-92.57"/>
<polygon fill="#7986cb" stroke="#7986cb" points="264.02,-96.07 274.02,-92.57 264.02,-89.07 264.02,-96.07"/>
<text xml:space="preserve" text-anchor="middle" x="173.92" y="-83.07" font-family="fixed" font-size="10.00" fill="#7986cb">lidar:LidarMessage</text>
</g>
<!-- Map&#45;&gt;AstarPlanner -->
<g id="edge6" class="edge">
<title>Map&#45;&gt;AstarPlanner</title>
<path fill="none" stroke="#ff8a65" d="M371.65,-121.57C371.65,-121.57 402.89,-130.02 427.65,-137.57 465.49,-149.13 507.18,-162.58 542.42,-174.17"/>
<polygon fill="#ff8a65" stroke="#ff8a65" points="541.1,-177.42 551.7,-177.22 543.29,-170.77 541.1,-177.42"/>
<text xml:space="preserve" text-anchor="middle" x="534.56" y="-138.91" font-family="fixed" font-size="10.00" fill="#ff8a65">global_costmap:OccupancyGrid</text>
</g>
<!-- Map&#45;&gt;BehaviorTreeNavigator -->
<g id="edge7" class="edge">
<title>Map&#45;&gt;BehaviorTreeNavigator</title>
<path fill="none" stroke="#ff8a65" d="M379.48,-272.83C392.11,-229.51 390.94,-160.39 375.96,-121.87"/>
<polygon fill="#ff8a65" stroke="#ff8a65" points="376.24,-271.49 376.35,-282.09 382.87,-273.74 376.24,-271.49"/>
<text xml:space="preserve" text-anchor="middle" x="316.15" y="-193.15" font-family="fixed" font-size="10.00" fill="#ff8a65">global_costmap:OccupancyGrid</text>
</g>
<!-- Map&#45;&gt;HolonomicLocalPlanner -->
<g id="edge8" class="edge">
<title>Map&#45;&gt;HolonomicLocalPlanner</title>
<path fill="none" stroke="#f06292" d="M420.11,-90.49C494.89,-89.95 615.15,-93.78 715.6,-118.57 759.38,-129.38 805.8,-149.58 841.7,-167.35"/>
<polygon fill="#f06292" stroke="#f06292" points="839.68,-170.25 850.19,-171.61 842.82,-163.99 839.68,-170.25"/>
<text xml:space="preserve" text-anchor="middle" x="571.5" y="-94.47" font-family="fixed" font-size="10.00" fill="#f06292">local_costmap:OccupancyGrid</text>
</g>
<!-- Map&#45;&gt;WavefrontFrontierExplorer -->
<g id="edge9" class="edge">
<title>Map&#45;&gt;WavefrontFrontierExplorer</title>
<path fill="none" stroke="#ff8a65" d="M371.65,-121.57C371.65,-121.57 406.41,-122.78 427.65,-137.57 494.09,-183.87 481.5,-224.05 535.3,-284.57 549.64,-300.71 566.72,-317.18 582.08,-331.15"/>
<polygon fill="#ff8a65" stroke="#ff8a65" points="579.5,-333.53 589.28,-337.62 584.18,-328.33 579.5,-333.53"/>
<text xml:space="preserve" text-anchor="middle" x="422.83" y="-213.6" font-family="fixed" font-size="10.00" fill="#ff8a65">global_costmap:OccupancyGrid</text>
</g>
</g>
</svg>
